# xmcd
#
# Track frame offsets: 
#        150
#        40048
#        74907
#        83793
#        98059
#        114913
#        122201
#        159884
#        190960
#        202243
#        219656
#        234357
#        269542
#        296208
#        327035
#
# Disc length: 4763 seconds
#
# Revision: 0
# Processed by: cddbd v1.5.1PL2 Copyright (c) Steve Scherf et al.
# Submitted via: ExactAudioCopy v0.95b4
#
DISCID=e112990f
DTITLE=Various Artist - Best of Brazilian Beats
DYEAR=2006
DGENRE=Electronic
TTITLE0=Masters At Work and Illiana - Brazilian Beat (Dope Mix)
TTITLE1=Parney De Castro - Ba-Tu-Ca-Da (Pete Heller Mix)
TTITLE2=Jenorio Jr - Nebulosa 
TTITLE3=Jorge Ben and Toquinho - Carolina Carol Bela
TTITLE4=Orlandivo - Onde Anda O Meu Amor
TTITLE5=Tro Mocoto - Swinga Sambaby
TTITLE6=River Ocean - Love And Happiness (Sao Benitez Sun Rise Mix)
TTITLE7=Masters At Work Feat. Illiana Chachian - Brazilian Beat (Romat
TTITLE7=t Dub)
TTITLE8=Atoa - Ronie E O Central Do Brasil
TTITLE9=Wando - Nega De Obluae
TTITLE10=Zana - Toquinho
TTITLE11=Banda Black Rio - Magia Do Prazer (Faze Action Horny Mix)
TTITLE12=Seu Jorge - Carolina
TTITLE13=Lue Mendes - Natural High (Sumo Rebounce Mix)
TTITLE14=Marcelinho Da Lua and Seu Jorge - Cotidiano
EXTD=
EXTT0=
EXTT1=
EXTT2=
EXTT3=
EXTT4=
EXTT5=
EXTT6=
EXTT7=
EXTT8=
EXTT9=
EXTT10=
EXTT11=
EXTT12=
EXTT13=
EXTT14=
PLAYORDER=
